{"title":"Louder.Than.Bombs.2015.720p.BRRip.XviD.AC3-RARBG","uid":14748711,"size":3417167453,"categoryP":"video","categoryS":"movies","magnet":"?xt=urn:btih:b292f263151c7bc8020247d23d0dea34188862ec&amp;dn=Louder.Than.Bombs.2015.720p.BRRip.XviD.AC3-RARBG&amp;tr=udp%3A%2F%2Ftracker.leechers-paradise.org%3A6969&amp;tr=udp%3A%2F%2Fzer0day.ch%3A1337&amp;tr=udp%3A%2F%2Fopen.demonii.com%3A1337&amp;tr=udp%3A%2F%2Ftracker.coppersurfer.tk%3A6969&amp;tr=udp%3A%2F%2Fexodus.desync.com%3A6969","seeders":0,"leechers":1,"uploader":"noriegaRJ","files":4,"time":1464741079,"description":"Title: Louder Than Bombs\r\n\r\nRelease: Louder.Than.Bombs.2015.720p.BRRip.XviD.AC3-RARBG\r\n\r\n\r\nIMDB Link:                                                                  \nhttp://www.imdb.com/title/tt2217859/\r\n\r\n\r\nPlot: An upcoming exhibition celebrating photographer Isabelle Reed three years after her untimely death, brings her eldest son Jonah back to the family house - forcing him to spend more time with his father Gene and withdrawn younger brother Conrad than he has in years. With the three of them under the same roof, Gene tries desperately to connect with his two sons, but they struggle to reconcile their feelings about the woman they remember so differently.\r\n\r\n\r\nGeneral\r\nComplete name                            : Louder.Than.Bombs.2015.720p.BRRip.XviD.AC3-RARBG\r\nFormat                                   : AVI\r\nFormat/Info                              : Audio Video Interleave\r\nFormat profile                           : OpenDML\r\nFile size                                : 3.18 GiB\r\nDuration                                 : 1h 44mn\r\nOverall bit rate                         : 4 349 Kbps\r\nMovie name                               : RARBG.COM - Louder.Than.Bombs.2015.720p.BRRip.XviD.AC3-RARBG\r\nWriting application                      : Lavf56.40.101\r\nWriting library                          : VirtualDub build 35491/release\r\nComment                                  : RARBG.COM - Louder.Than.Bombs.2015.720p.BRRip.XviD.AC3-RARBG\r\n\r\nVideo\r\nID                                       : 0\r\nFormat                                   : MPEG-4 Visual\r\nFormat profile                           :   \r\nFormat settings, BVOP                    : No\r\nFormat settings, QPel                    : No\r\nFormat settings, GMC                     : No warppoints\r\nFormat settings, Matrix                  : Default (H.263)\r\nCodec ID                                 : XVID\r\nCodec ID/Hint                            : XviD\r\nDuration                                 : 1h 44mn\r\nBit rate                                 : 3 699 Kbps\r\nWidth                                    : 1 280 pixels\r\nHeight                                   : 688 pixels\r\nDisplay aspect ratio                     : 1.85:1\r\nFrame rate                               : 25.000 fps\r\nColor space                              : YUV\r\nChroma subsampling                       : 4:2:0\r\nBit depth                                : 8 bits\r\nScan type                                : Progressive\r\nCompression mode                         : Lossy\r\nBits/(Pixel*Frame)                       : 0.168\r\nStream size                              : 2.71 GiB (85%)\r\nWriting library                          : Lavc56.60.100\r\n\r\nAudio\r\nID                                       : 1\r\nFormat                                   : AC-3\r\nFormat/Info                              : Audio Coding 3\r\nMode extension                           : CM (complete main)\r\nFormat settings, Endianness              : Big\r\nCodec ID                                 : 2000\r\nDuration                                 : 1h 44mn\r\nBit rate mode                            : Constant\r\nBit rate                                 : 640 Kbps\r\nChannel count                            : 6 channels\r\nChannel positions                        : Front: L C R, Side: L R, LFE\r\nSampling rate                            : 48.0 KHz\r\nBit depth                                : 16 bits\r\nCompression mode                         : Lossy\r\nStream size                              : 479 MiB (15%)\r\nAlignment                                : Aligned on interleaves\r\nInterleave, duration                     : 40 ms (1.00 video frame)\r\nInterleave, preload duration             : 512 ms\r\n\r\n\r\n\r\n\r\nThanks to those helping me seed. Leechers remember, the community depends on you. If nobody shares, the freebies go away. Remember, the only reason you can download this free movie is because others are generous enough to keep sharing it with you. If nobody shares, everybody loses, so even if its for an extra hour or two after you get it, remember, others want to see it too, and they can't without you.\r\n\r\n\r\nSEE MY OTHERS UPLOADS:                                                                                          \nhttp://thepiratebay.se/user/noriegaRJ\r\n\r\nAND SEE THIS ANOTHERS UPLOADS FROM &quot;HORiZON-ArtSubs&quot;:                                          \nhttp://thepiratebay.se/user/artsubs                                          \nhttp://thepiratebay.se/user/lletaif","torrent":{"xt":"urn:btih:b292f263151c7bc8020247d23d0dea34188862ec","amp;dn":"Louder.Than.Bombs.2015.720p.BRRip.XviD.AC3-RARBG","amp;tr":["udp%3A%2F%2Ftracker.leechers-paradise.org%3A6969","udp%3A%2F%2Fzer0day.ch%3A1337","udp%3A%2F%2Fopen.demonii.com%3A1337","udp%3A%2F%2Ftracker.coppersurfer.tk%3A6969","udp%3A%2F%2Fexodus.desync.com%3A6969"],"infoHash":"b292f263151c7bc8020247d23d0dea34188862ec","infoHashBuffer":{"type":"Buffer","data":[178,146,242,99,21,28,123,200,2,2,71,210,61,13,234,52,24,136,98,236]},"announce":[],"urlList":[]}}